<?xml version="1.0" encoding="UTF-8" standalone="no"?>
<!-- Created with Inkscape (http://www.inkscape.org/) -->

<svg
   width="5.214437in"
   height="5.2092814in"
   viewBox="0 0 132.4467 132.31575"
   version="1.1"
   id="svg432"
   inkscape:version="1.2.2 (b0a8486541, 2022-12-01)"
   sodipodi:docname="pgwidgets-logo.svg"
   xmlns:inkscape="http://www.inkscape.org/namespaces/inkscape"
   xmlns:sodipodi="http://sodipodi.sourceforge.net/DTD/sodipodi-0.dtd"
   xmlns:xlink="http://www.w3.org/1999/xlink"
   xmlns="http://www.w3.org/2000/svg"
   xmlns:svg="http://www.w3.org/2000/svg">
  <sodipodi:namedview
     id="namedview434"
     pagecolor="#ffffff"
     bordercolor="#666666"
     borderopacity="1.0"
     inkscape:showpageshadow="2"
     inkscape:pageopacity="0.0"
     inkscape:pagecheckerboard="0"
     inkscape:deskcolor="#d1d1d1"
     inkscape:document-units="mm"
     showgrid="false"
     inkscape:zoom="0.914906"
     inkscape:cx="165.04428"
     inkscape:cy="198.38104"
     inkscape:window-width="1685"
     inkscape:window-height="1251"
     inkscape:window-x="5249"
     inkscape:window-y="660"
     inkscape:window-maximized="0"
     inkscape:current-layer="layer1" />
  <defs
     id="defs429">
    <linearGradient
       id="eye-grad"
       x1="0"
       y1="0"
       x2="0"
       y2="1">
      <stop
         offset="0%"
         stop-color="#ffffff"
         id="stop7" />
      <stop
         offset="100%"
         stop-color="#e8e8e8"
         id="stop9" />
    </linearGradient>
    <linearGradient
       inkscape:collect="always"
       xlink:href="#eye-grad"
       id="linearGradient360"
       x1="362.5"
       y1="168.5"
       x2="362.5"
       y2="231.5"
       gradientUnits="userSpaceOnUse"
       gradientTransform="matrix(0.28083155,0,0,0.42789408,-16.629119,71.341584)" />
    <linearGradient
       inkscape:collect="always"
       xlink:href="#eye-grad"
       id="linearGradient362"
       x1="474.5"
       y1="168.5"
       x2="474.5"
       y2="231.5"
       gradientUnits="userSpaceOnUse"
       gradientTransform="matrix(0.28083155,0,0,0.42789408,-16.629119,71.341584)" />
  </defs>
  <g
     inkscape:label="Layer 1"
     inkscape:groupmode="layer"
     id="layer1"
     transform="translate(-43.895469,-96.680472)">
    <g
       id="g892">
      <ellipse
         style="fill:#eee8aa;stroke:#228b22;stroke-width:0.820208;stop-color:#000000"
         id="path552"
         cx="110.11882"
         cy="162.83835"
         rx="65.813248"
         ry="65.747772" />
      <g
         id="g867"
         transform="translate(-0.9003362,1.422797)">
        <g
           aria-label="PRETTY"
           transform="scale(0.81013019,1.2343695)"
           id="text37"
           style="font-size:19.4124px;font-family:Algerian;-inkscape-font-specification:'Algerian, Normal';letter-spacing:3.46649;text-anchor:middle;opacity:0.85;fill:#1a3a4a;stroke-width:0.264583">
          <path
             d="m 92.320938,91.655272 h 4.255941 q 2.710911,0 3.857831,0.748818 1.45973,0.938392 1.45973,2.606645 0,1.014222 -0.55925,1.763041 -0.55924,0.748818 -1.563985,1.080573 -1.004744,0.331754 -3.194326,0.331754 h -1.165881 v 4.587697 l 1.156402,1.04266 h -4.4076 l 1.317541,-1.10901 v -3.800965 q -0.113745,-0.0095 -0.161138,-0.0095 -0.682468,0 -1.308062,0.29384 l -0.08531,-0.170617 q 0.635074,-0.360191 1.137445,-0.360191 h 0.341234 l 0.07583,-0.0095 v -0.464457 q -0.218011,-0.02844 -0.29384,-0.02844 -1.014222,0 -1.62086,0.492893 l -0.09479,-0.14218 q 0.578201,-1.061616 1.857827,-1.061616 h 0.15166 v -4.644568 z m 3.09006,0.976307 v 4.748834 h 0.123223 l 0.246446,0.0095 q 0.03792,0 0.123224,-0.0095 v -4.227505 h 1.042658 q 1.213275,0 1.706168,0.218011 0.502371,0.208531 0.853084,0.88152 -0.350713,-0.483415 -0.88152,-0.672989 -0.521329,-0.199053 -1.478679,-0.199053 h -0.976307 v 4.000016 q 1.876784,0 2.748826,-0.549765 0.88152,-0.549765 0.88152,-1.725125 0,-1.317541 -0.786733,-1.9147 -0.777255,-0.597159 -2.511859,-0.597159 -0.445499,0 -1.090051,0.03791 z m 6.000022,0.03791 q 0.5782,0.284361 0.92892,1.004743 0.35071,0.710904 0.35071,1.62086 0,2.05688 -1.59243,2.957357 -1.203792,0.682468 -4.113756,0.682468 -0.483415,0 -0.815169,-0.01896 v 3.914706 l 1.488157,1.76304 h -4.748834 l -0.255925,-0.25592 h 4.464473 l -1.213275,-1.40285 v -4.274901 q 0.824647,0.04739 1.753561,0.04739 2.445508,0 3.630348,-0.862563 1.18484,-0.862563 1.18484,-2.64456 0,-0.73934 -0.22749,-1.279626 -0.22749,-0.549765 -0.83413,-1.25119 z"
             id="path1224" />
          <path
             d="m 107.18084,92.792717 q 2.24645,-1.298583 4.83414,-1.298583 2.00949,0 3.30807,0.872041 1.30806,0.872042 1.30806,2.218018 0,1.099531 -0.85308,1.952615 -0.85309,0.843605 -2.33176,1.222754 0.65403,1.800955 1.77251,3.507118 1.12797,1.70617 2.25594,2.61613 l -0.14218,0.0474 q -1.41233,0.48342 -2.76779,1.36494 l -0.14218,0.0948 -0.0474,-0.30332 q -0.60664,-3.66826 -1.69669,-6.218029 l -0.0379,-0.09479 q -0.65404,0.303318 -1.75357,0.483414 l -0.0758,0.0095 v 3.545033 l 1.66826,1.782 h -4.9005 l -0.15166,-0.25592 h 4.51187 l -1.37441,-1.45972 v -3.819925 l 0.19905,-0.02844 q 1.08057,-0.113745 1.81043,-0.426542 -0.0569,-0.113745 -0.0663,-0.142181 l -0.0948,-0.274883 q -0.009,-0.02844 -0.0474,-0.113744 -0.58768,0.170617 -2.21802,0.36967 l -0.10426,0.01896 v 4.227504 l 1.08057,1.12797 h -4.18959 l 1.23223,-1.12797 v -3.184846 l -0.0758,0.0095 q -0.54976,0.123223 -0.99526,0.274883 l -0.0758,0.02844 -0.0853,-0.189574 q 0.41706,-0.161139 0.65403,-0.218011 l 0.50237,-0.123223 0.0758,-0.01896 v -0.492893 q -0.55924,0 -1.39337,0.246446 l -0.10426,0.03791 q 0.019,-0.132702 0.18957,-0.616116 0.019,-0.03791 0.1327,-0.426542 0.009,-0.02844 0.0284,-0.08531 0.42654,0.02844 0.66351,0.02844 0.25593,0 0.47394,-0.02844 v -4.663525 q -0.43603,-0.265404 -0.90048,-0.4455 z m 2.86257,-0.246446 v 5.109025 q 0.27488,0 0.52133,-0.04739 v -4.663525 q 0.52133,-0.142181 1.25119,-0.142181 1.84835,0 2.51186,1.213275 -0.70143,-0.568723 -1.23224,-0.777254 -0.5308,-0.218011 -1.27014,-0.218011 -0.5782,0 -1.01423,0.113745 v 4.473951 l 0.10427,-0.01896 q 1.86731,-0.341234 2.76778,-1.071095 0.90996,-0.739339 0.90996,-1.914699 0,-1.052137 -0.81517,-1.734604 -0.81517,-0.691946 -2.05688,-0.691946 -0.99526,0 -1.67773,0.36967 z m 4.57822,5.687226 q 0.59715,1.952613 2.11375,3.819923 0.94787,1.16588 2.39811,2.09479 -2.17062,0.5782 -4.07584,1.76304 l -0.0853,0.0569 -0.18958,-0.15165 q 1.81044,-1.18484 3.85784,-1.74409 -2.72987,-1.81991 -4.29386,-5.819926 l -0.0569,-0.161138 q 2.90049,-1.09953 2.90049,-3.355463 0,-0.928914 -0.74882,-2.028444 0.95735,0.872041 0.95735,2.218018 0,2.180103 -2.77726,3.30807 z"
             id="path1226" />
          <path
             d="m 132.80855,91.655272 -0.15166,0.180095 q -0.96682,1.184839 -1.53555,2.72039 -0.0948,-0.21801 -0.14218,-0.322276 -0.52133,-1.137445 -1.11848,-1.4692 -0.59716,-0.331755 -2.14219,-0.331755 -0.71091,0 -1.70617,0.04739 v 4.360207 h 0.60664 v -3.857836 q 0.72038,-0.06635 1.37441,-0.06635 1.2038,0 1.77252,0.255926 0.56872,0.255925 1.01422,0.995264 -0.1327,-0.09479 -0.18957,-0.14218 -0.76778,-0.606638 -1.10901,-0.720382 -0.34124,-0.113745 -1.34598,-0.113745 -0.30332,0 -1.08057,0.03792 l -0.19906,0.0095 v 3.60191 h 1.74409 l 1.22275,-1.677732 v 4.085324 l -1.22275,-1.582945 h -2.58769 v 5.317556 h 0.60664 v -4.872056 h 2.05688 l 0.24644,0.246446 h -2.06636 v 4.62561 q 1.93366,0 2.74883,-0.27488 0.81517,-0.27488 1.27963,-1.08057 l 0.50237,-0.86257 q 0.0284,-0.0569 0.11374,-0.20853 0.24645,1.04266 0.60664,1.66825 0.36967,0.6256 1.21327,1.45973 h -10.62563 l 1.44076,-1.09953 v -4.22751 q -0.79621,0.09479 -1.44076,0.492893 l -0.1327,-0.199053 q 0.5782,-0.417063 1.57346,-0.540286 v -0.4455 q -0.16113,-0.01896 -0.22749,-0.01896 -0.96682,0 -1.76304,0.710903 0.43603,-1.516593 1.99053,-1.516593 v -4.04741 l -1.44076,-1.137445 z m 0.45498,0.66351 -0.0663,0.08531 q -1.1564,1.554509 -1.54503,2.606645 l -0.16114,-0.199052 q 0.63508,-1.469201 1.63982,-2.691954 z m -2.78674,3.15641 v 4.18959 l -0.23697,-0.123223 v -4.18959 z m 3.92419,8.265438 -0.4929,0.85308 h -10.35075 l -0.15166,-0.25592 h 10.37919 l 0.32228,-0.59716 q -1.36494,-1.26067 -1.92418,-2.69196 l 0.30332,0.11375 q 0.52133,1.21327 1.76304,2.42655 z"
             id="path1228" />
          <path
             d="m 148.63528,91.655272 q -0.0853,0.161138 -0.11374,0.21801 l -0.64455,1.137446 q -0.33176,0.606637 -0.61612,1.516593 l -0.019,0.04739 -0.0948,-0.06635 -0.0284,-0.123223 q -0.27488,-1.080573 -0.78673,-1.497637 -0.50238,-0.417063 -1.54503,-0.417063 -0.42655,0 -0.85309,0.03792 h -0.11374 v 10.274924 l 1.11849,1.03318 h -4.33178 l 1.32702,-1.10901 v -9.431319 l -0.67298,-0.0095 q -0.97631,0 -1.39337,0.388627 -0.40759,0.379148 -0.48342,1.345977 h -0.24645 q 0.10427,-1.109009 0.56873,-1.54503 0.47393,-0.436021 1.55451,-0.436021 l 0.56872,0.0095 h 0.10426 v -0.464457 q -0.48341,-0.05687 -0.91943,-0.05687 -1.22275,0 -1.76304,0.502372 -0.54029,0.492892 -0.59716,1.677731 h -0.11374 q -0.40759,-1.31754 -1.26067,-2.9384 l -0.0569,-0.09479 z m 0.59716,0.597159 q -0.65403,0.834126 -1.37441,2.767783 l -0.0379,0.09479 -0.20853,-0.180095 0.0284,-0.08531 q 0.70142,-1.962093 1.35545,-2.729868 l 0.0474,-0.05687 z m -2.53081,1.478679 q -0.72987,-0.473936 -1.70617,-0.473936 -0.21801,0 -0.45498,0.02844 l 0.0379,9.5261 1.50712,1.782 h -4.84362 l -0.21801,-0.25592 h 4.5403 l -1.27015,-1.45025 v -9.876812 l 0.51185,-0.0095 q 0.91944,0 1.29859,0.151659 0.38862,0.142181 0.59716,0.578202 z"
             id="path1230" />
          <path
             d="m 163.33404,91.655272 q -0.0853,0.161138 -0.11374,0.21801 l -0.64455,1.137446 q -0.33176,0.606637 -0.61612,1.516593 l -0.019,0.04739 -0.0948,-0.06635 -0.0284,-0.123223 q -0.27488,-1.080573 -0.78673,-1.497637 -0.50237,-0.417063 -1.54503,-0.417063 -0.42654,0 -0.85309,0.03792 h -0.11374 v 10.274924 l 1.11849,1.03318 h -4.33177 l 1.32702,-1.10901 v -9.431319 l -0.67299,-0.0095 q -0.97631,0 -1.39337,0.388627 -0.40759,0.379148 -0.48342,1.345977 h -0.24644 q 0.10426,-1.109009 0.56872,-1.54503 0.47393,-0.436021 1.55451,-0.436021 l 0.56872,0.0095 h 0.10427 v -0.464457 q -0.48342,-0.05687 -0.91944,-0.05687 -1.22275,0 -1.76304,0.502372 -0.54029,0.492892 -0.59716,1.677731 h -0.11374 q -0.40759,-1.31754 -1.26067,-2.9384 l -0.0569,-0.09479 z m 0.59716,0.597159 q -0.65403,0.834126 -1.37441,2.767783 l -0.0379,0.09479 -0.20853,-0.180095 0.0284,-0.08531 q 0.70142,-1.962093 1.35545,-2.729868 l 0.0474,-0.05687 z m -2.53081,1.478679 q -0.72986,-0.473936 -1.70617,-0.473936 -0.21801,0 -0.45498,0.02844 l 0.0379,9.5261 1.50711,1.782 h -4.84362 l -0.21801,-0.25592 h 4.5403 l -1.27015,-1.45025 v -9.876812 l 0.51185,-0.0095 q 0.91944,0 1.29859,0.151659 0.38863,0.142181 0.59716,0.578202 z"
             id="path1232" />
          <path
             d="m 180.71528,88.318766 0.0569,0.07583 -0.0948,0.104266 q -1.69668,1.76304 -2.79621,3.582953 -0.42655,0.691946 -0.60664,0.985786 l -3.52608,5.639833 v 3.848357 l 1.37441,1.26067 h -4.61613 l 1.36493,-1.26067 v -3.848357 l -2.27489,-3.497645 -0.49289,-0.786733 q -0.67299,-1.052136 -1.10901,-1.535551 -0.42654,-0.483414 -1.27015,-1.146924 l -0.10426,-0.08531 h 4.78675 l -1.17536,1.222754 3.15641,4.758312 0.30332,-0.483414 -2.81518,-4.274898 0.99526,-0.947871 0.19906,0.151659 -0.86257,0.796212 2.62561,4.047409 2.12323,-3.345985 q 0.91943,-1.459721 0.91943,-2.180103 0,-0.606638 -0.80569,-1.383892 2.75831,-0.66351 4.53083,-1.639817 z m 0.42654,0.568722 v 0.388628 l -0.0948,0.09479 q -0.79621,0.758296 -1.37441,1.516593 -0.56872,0.758297 -1.69669,2.549773 l -3.43129,5.402866 v 3.715655 l 1.68721,2.03792 h -5.93367 l -0.11375,-0.25592 h 5.54505 l -1.44077,-1.782 v -3.782006 l 3.49765,-5.51661 0.54976,-0.872041 q 1.4692,-2.341242 2.8057,-3.497645 z"
             id="path1234" />
        </g>
        <g
           aria-label="G"
           transform="scale(0.81013019,1.2343695)"
           id="text39"
           style="font-size:27.732px;font-family:Algerian;-inkscape-font-specification:'Algerian, Normal';text-anchor:middle;fill:#1a3a4a;stroke-width:0.264583">
          <path
             d="m 93.353431,116.04939 -2.53217,4.9831 q -0.243738,-2.12594 -1.34056,-3.24985 -1.083281,-1.1239 -2.870695,-1.1239 -2.545711,0 -3.967518,1.97699 -1.408266,1.97699 -1.408266,5.53827 0,7.84025 6.418442,7.84025 h 2.180103 v -7.02779 h -3.412336 q -1.110363,0 -1.59784,-0.12187 -0.473935,-0.12186 -0.920789,-0.52809 v -0.33853 q 0.487477,0.36561 0.974954,0.48748 0.487476,0.10832 1.584298,0.10832 h 3.371713 v -0.73121 h -3.764402 -0.609346 q -2.017611,0 -2.017611,-1.46243 0,-0.56872 0.338525,-0.97495 0.338526,-0.40623 0.812461,-0.40623 0.352067,0 0.609346,0.25728 0.27082,0.25728 0.27082,0.60934 0,0.59581 -0.433312,0.69059 l -0.324985,0.0677 q -0.162492,0.0406 -0.162492,0.13541 0,0.17603 0.446854,0.17603 h 0.460394 8.937071 l -1.868661,1.82804 v 6.67572 l 1.73325,1.48951 H 87.34122 85.973578 q -1.719709,0 -2.843614,-0.41977 -1.123904,-0.41977 -2.27489,-1.48951 -2.721744,-2.49155 -2.721744,-6.67572 0,-4.31959 2.572793,-6.74343 2.247808,-2.12594 5.33516,-2.12594 1.381183,0 3.168598,0.48748 1.828037,0.50102 2.4103,0.50102 0.853084,0 1.73325,-0.43332 z m 0.812461,0.85309 -2.315513,4.54978 -0.324985,-0.14895 2.329055,-4.56332 z m -4.333125,2.05823 -0.243738,-0.17603 q -1.543676,-1.09682 -2.816531,-1.09682 -1.543676,0 -2.66758,1.09682 -0.812461,0.81246 -1.178069,2.12594 -0.352066,1.31348 -0.352066,3.4665 0,2.73528 0.54164,4.18417 0.541641,1.44889 1.99053,2.61342 v 0.14895 q -1.570758,-0.93433 -2.26135,-2.62696 -0.690592,-1.70617 -0.690592,-4.61748 0,-3.20922 1.205151,-4.9831 1.20515,-1.78741 3.385254,-1.78741 1.895742,0 3.087351,1.57076 z m 5.145586,4.76644 -1.394724,1.39472 v 6.35074 l 2.247808,2.58633 -5.375783,-0.0406 -4.874766,0.0542 q -0.460394,0 -0.704132,-0.0271 -0.853084,-0.0948 -1.719709,-0.74475 h 0.284361 q 0.920789,0.40623 2.518629,0.40623 l 0.677051,-0.0135 h 8.436052 l -1.86866,-2.07178 v -6.6351 l 1.557217,-1.57075 z"
             id="path1237" />
        </g>
        <ellipse
           cx="94.018509"
           cy="156.92039"
           fill="url(#eye-grad)"
           stroke="#2a5a6a"
           stroke-width="0.793747"
           id="ellipse41"
           style="fill:url(#linearGradient360)"
           rx="8.4249468"
           ry="12.836823" />
        <ellipse
           cx="95.141838"
           cy="157.77618"
           fill="#2a5a6a"
           id="circle43"
           style="stroke-width:0.319603"
           rx="4.4933047"
           ry="6.8463049" />
        <ellipse
           cx="95.984329"
           cy="158.63197"
           fill="#0a1a2a"
           id="circle45"
           style="stroke-width:0.319603"
           rx="2.2466524"
           ry="3.4231524" />
        <ellipse
           cx="92.895187"
           cy="154.35304"
           fill="#ffffff"
           opacity="0.8"
           id="circle47"
           style="stroke-width:0.319603"
           rx="1.6849893"
           ry="2.5673647" />
        <ellipse
           cx="95.703499"
           cy="156.92039"
           fill="#ffffff"
           opacity="0.5"
           id="circle49"
           style="stroke-width:0.319603"
           rx="0.70207888"
           ry="1.0697352" />
        <ellipse
           cx="125.47165"
           cy="156.92039"
           fill="url(#eye-grad)"
           stroke="#2a5a6a"
           stroke-width="0.793747"
           id="ellipse51"
           style="fill:url(#linearGradient362)"
           rx="8.4249468"
           ry="12.836823" />
        <ellipse
           cx="126.59497"
           cy="157.77618"
           fill="#2a5a6a"
           id="circle53"
           style="stroke-width:0.319603"
           rx="4.4933047"
           ry="6.8463049" />
        <ellipse
           cx="127.43746"
           cy="158.63197"
           fill="#0a1a2a"
           id="circle55"
           style="stroke-width:0.319603"
           rx="2.2466524"
           ry="3.4231524" />
        <ellipse
           cx="124.34832"
           cy="154.35304"
           fill="#ffffff"
           opacity="0.8"
           id="circle57"
           style="stroke-width:0.319603"
           rx="1.6849893"
           ry="2.5673647" />
        <ellipse
           cx="127.15664"
           cy="156.92039"
           fill="#ffffff"
           opacity="0.5"
           id="circle59"
           style="stroke-width:0.319603"
           rx="0.70207888"
           ry="1.0697352" />
        <path
           d="m 85.031903,141.94411 q 8.98661,-6.41841 17.973217,0"
           fill="none"
           stroke="#1a3a4a"
           stroke-width="1.05833"
           stroke-linecap="round"
           id="path61" />
        <path
           d="m 116.48503,141.94411 q 8.98661,-6.41841 17.97322,0"
           fill="none"
           stroke="#1a3a4a"
           stroke-width="1.05833"
           stroke-linecap="round"
           id="path63" />
        <g
           aria-label="D"
           transform="scale(0.81013019,1.2343695)"
           id="text65"
           style="font-size:27.732px;font-family:Algerian;-inkscape-font-specification:'Algerian, Normal';text-anchor:middle;fill:#1a3a4a;stroke-width:0.264583">
          <path
             d="m 176.58326,115.57546 h 5.33516 q 3.91335,0 5.79555,1.50305 2.80299,2.22073 2.80299,6.96008 0,4.91539 -2.45092,7.10904 -1.11036,0.98849 -2.49155,1.39472 -1.36764,0.40623 -3.64253,0.40623 h -5.75493 l 1.85512,-1.42181 v -14.3941 z m 4.10293,1.13744 v 15.19302 h 0.74475 v -14.29931 q 0.70413,-0.10833 1.2864,-0.10833 1.11036,0 1.74679,0.2302 0.64997,0.21666 1.29994,0.81246 -1.43535,-0.67705 -3.07381,-0.67705 -0.35207,0 -0.92079,0.0542 v 13.98787 q 1.51659,0 2.30197,-0.24374 0.78538,-0.25727 1.48951,-0.97495 1.96345,-1.99053 1.96345,-6.68926 0,-4.5904 -2.12594,-6.26949 -1.2864,-1.01558 -4.07585,-1.01558 z m -3.66962,17.34604 -0.20312,-0.3656 h 4.95602 q 3.65607,0 5.55181,-1.01558 4.07585,-2.16656 4.07585,-8.38189 0,-4.15709 -1.82804,-6.1747 l -0.54164,-0.59581 q -0.0271,-0.0271 -0.16249,-0.18957 2.87069,1.80096 2.87069,6.89238 0,5.3487 -2.84361,7.88087 -2.1801,1.9499 -7.12257,1.9499 z"
             id="path1240" />
        </g>
        <path
           d="m 95.703501,177.45932 q 14.041579,10.26946 28.083159,0"
           fill="none"
           stroke="#1a3a4a"
           stroke-width="1.05833"
           stroke-linecap="round"
           id="path67" />
        <g
           aria-label="WIDGETS"
           transform="scale(0.81013019,1.2343695)"
           id="text73"
           style="font-size:19.4124px;font-family:Algerian;-inkscape-font-specification:'Algerian, Normal';letter-spacing:2.7732;text-anchor:middle;opacity:0.85;fill:#1a3a4a;stroke-width:0.264583">
          <path
             d="m 102.99289,152.9944 q -1.31754,1.45024 -1.99053,2.89101 -0.66351,1.44076 -1.573463,4.76779 l -1.639817,5.97158 0.189574,0.73934 1.165881,1.04266 h -4.322292 l 1.241711,-1.04266 -1.677731,-6.07585 -1.630339,5.94315 1.630339,1.95262 h -4.843621 l -0.189575,-0.25593 h 4.511867 l -1.421807,-1.63982 1.791476,-6.48343 -0.312797,-1.12797 -1.943136,7.09955 0.15166,0.58768 1.109009,1.04266 h -4.331771 l 1.289105,-1.04266 -2.758305,-9.92421 -1.421807,-1.19431 h 4.63509 l -1.298584,1.19431 2.170625,7.81046 0.331755,-1.14692 -1.829391,-6.52136 0.862562,-0.76777 0.218011,0.15166 -0.786733,0.70142 1.658774,5.96211 2.028444,-7.38391 h 0.890999 l 2.464465,8.92894 0.303319,-1.07109 -2.180104,-7.85785 h 0.265404 l 2.037923,7.38391 0.890999,-3.2038 q 0.834126,-3.01423 0.834126,-3.92419 0,-1.01422 -0.947871,-1.59242 1.109009,-0.35071 2.379156,-0.95735 1.27015,-0.60664 1.89574,-1.09005 z m 0.56872,0.72038 q -1.13744,1.25119 -1.87678,2.82466 -0.72986,1.57346 -1.49764,4.39812 l -1.677728,6.12325 1.819908,2.12323 h -4.862574 l -0.218011,-0.25593 h 4.502388 l -1.535551,-1.77252 1.744082,-6.35073 q 0.777256,-2.82466 1.488156,-4.34125 0.71091,-1.52608 1.89574,-2.90997 z"
             id="path1243" />
          <path
             d="m 105.0931,156.2456 h 4.49291 l -1.27015,1.2891 v 9.86734 l 1.19432,1.00474 h -4.41708 l 1.31754,-1.09005 v -9.88629 z m 4.91945,0.54028 -0.96683,0.95735 v 9.65881 l 1.59243,1.782 h -4.92893 l -0.23697,-0.25593 h 4.60665 l -1.29858,-1.43128 v -9.83891 l 1.0711,-1.06161 z"
             id="path1245" />
          <path
             d="m 114.08434,156.2456 h 3.73461 q 2.73935,0 4.05689,1.05213 1.96209,1.55451 1.96209,4.87206 0,3.44077 -1.71564,4.97632 -0.77726,0.69195 -1.74409,0.97631 -0.95735,0.28436 -2.54977,0.28436 h -4.02845 l 1.29858,-0.99526 v -10.07587 z m 2.87205,0.79621 v 10.63511 h 0.52133 V 157.6674 q 0.49289,-0.0758 0.90047,-0.0758 0.77726,0 1.22276,0.16114 0.45498,0.15166 0.90995,0.56872 -1.00474,-0.47393 -2.15166,-0.47393 -0.24645,0 -0.64456,0.0379 v 9.79151 q 1.06162,0 1.61139,-0.17062 0.54976,-0.18009 1.04265,-0.68246 1.37442,-1.39337 1.37442,-4.68249 0,-3.21328 -1.48816,-4.38864 -0.90048,-0.7109 -2.85309,-0.7109 z m -2.56873,12.14223 -0.14218,-0.25593 h 3.4692 q 2.55926,0 3.88628,-0.7109 2.85309,-1.5166 2.85309,-5.86732 0,-2.90997 -1.27963,-4.3223 l -0.37915,-0.41706 q -0.019,-0.019 -0.11374,-0.1327 2.00949,1.26067 2.00949,4.82466 0,3.74409 -1.99053,5.51661 -1.52608,1.36494 -4.98581,1.36494 z"
             id="path1247" />
          <path
             d="m 139.01876,156.57735 -1.77252,3.48817 q -0.17061,-1.48816 -0.93839,-2.27489 -0.7583,-0.78674 -2.00949,-0.78674 -1.78199,0 -2.77726,1.38389 -0.98578,1.3839 -0.98578,3.8768 0,5.48817 4.49291,5.48817 h 1.52607 v -4.91945 h -2.38864 q -0.77725,0 -1.11849,-0.0853 -0.33175,-0.0853 -0.64455,-0.36967 v -0.23697 q 0.34124,0.25593 0.68247,0.34124 0.34123,0.0758 1.10901,0.0758 h 2.3602 v -0.51185 h -2.63508 -0.42655 q -1.41232,0 -1.41232,-1.0237 0,-0.39811 0.23696,-0.68247 0.23697,-0.28436 0.56873,-0.28436 0.24644,0 0.42654,0.18009 0.18957,0.1801 0.18957,0.42655 0,0.41706 -0.30332,0.48341 l -0.22748,0.0474 q -0.11375,0.0284 -0.11375,0.0948 0,0.12322 0.3128,0.12322 h 0.32227 6.25595 l -1.30806,1.27963 v 4.673 l 1.21328,1.04266 h -4.84363 -0.95734 q -1.2038,0 -1.99053,-0.29384 -0.78674,-0.29384 -1.59243,-1.04266 -1.90522,-1.74408 -1.90522,-4.673 0,-3.02371 1.80096,-4.7204 1.57346,-1.48816 3.73461,-1.48816 0.96683,0 2.21802,0.34124 1.27962,0.35071 1.68721,0.35071 0.59716,0 1.21327,-0.30332 z m 0.56872,0.59716 -1.62085,3.18485 -0.22749,-0.10427 1.63033,-3.19432 z m -3.03318,1.44076 -0.17062,-0.12322 q -1.08057,-0.76777 -1.97157,-0.76777 -1.08057,0 -1.86731,0.76777 -0.56872,0.56872 -0.82464,1.48816 -0.24645,0.91943 -0.24645,2.42655 0,1.9147 0.37915,2.92892 0.37915,1.01422 1.39337,1.82939 v 0.10427 q -1.09953,-0.65403 -1.58295,-1.83887 -0.48341,-1.19432 -0.48341,-3.23224 0,-2.24646 0.8436,-3.48817 0.84361,-1.25119 2.36968,-1.25119 1.32702,0 2.16115,1.09953 z m 3.60191,3.33651 -0.97631,0.97631 v 4.44551 l 1.57347,1.81044 -3.76305,-0.0284 -3.41234,0.0379 q -0.32227,0 -0.49289,-0.0189 -0.59716,-0.0663 -1.2038,-0.52133 h 0.19906 q 0.64455,0.28436 1.76304,0.28436 l 0.47393,-0.009 h 5.90524 l -1.30806,-1.45024 v -4.64457 l 1.09005,-1.09953 z"
             id="path1249" />
          <path
             d="m 154.57874,156.2456 -0.15165,0.18009 q -0.96683,1.18484 -1.53556,2.72039 -0.0948,-0.21801 -0.14218,-0.32227 -0.52133,-1.13745 -1.11848,-1.4692 -0.59716,-0.33176 -2.14219,-0.33176 -0.71091,0 -1.70617,0.0474 v 4.36021 h 0.60664 v -3.85783 q 0.72038,-0.0664 1.37441,-0.0664 1.2038,0 1.77252,0.25593 0.56872,0.25593 1.01422,0.99526 -0.1327,-0.0948 -0.18957,-0.14218 -0.76778,-0.60663 -1.10901,-0.72038 -0.34124,-0.11374 -1.34598,-0.11374 -0.30332,0 -1.08057,0.0379 l -0.19906,0.009 v 3.60191 h 1.74409 l 1.22275,-1.67773 v 4.08532 l -1.22275,-1.58294 h -2.58769 v 5.31756 h 0.60664 v -4.87206 h 2.05688 l 0.24644,0.24644 h -2.06636 v 4.62562 q 1.93366,0 2.74883,-0.27489 0.81517,-0.27488 1.27963,-1.08057 l 0.50237,-0.86256 q 0.0284,-0.0569 0.11374,-0.20853 0.24645,1.04265 0.60664,1.66825 0.36967,0.62559 1.21328,1.45972 h -10.62564 l 1.44076,-1.09953 v -4.22751 q -0.79621,0.0948 -1.44076,0.4929 l -0.1327,-0.19906 q 0.5782,-0.41706 1.57346,-0.54028 v -0.4455 q -0.16113,-0.019 -0.22748,-0.019 -0.96683,0 -1.76304,0.7109 0.43602,-1.51659 1.99052,-1.51659 v -4.04741 l -1.44076,-1.13744 z m 0.45498,0.66351 -0.0663,0.0853 q -1.1564,1.55451 -1.54503,2.60665 l -0.16114,-0.19905 q 0.63508,-1.4692 1.63982,-2.69196 z m -2.78674,3.15641 v 4.18959 l -0.23697,-0.12323 v -4.18959 z m 3.92419,8.26543 -0.49289,0.85309 h -10.35076 l -0.15166,-0.25593 h 10.37919 l 0.32228,-0.59716 q -1.36494,-1.26067 -1.92418,-2.69195 l 0.30332,0.11374 q 0.52133,1.21328 1.76304,2.42655 z"
             id="path1251" />
          <path
             d="m 169.71218,156.2456 q -0.0853,0.16113 -0.11374,0.21801 l -0.64455,1.13744 q -0.33176,0.60664 -0.61612,1.5166 l -0.019,0.0474 -0.0948,-0.0663 -0.0284,-0.12323 q -0.27488,-1.08057 -0.78673,-1.49763 -0.50237,-0.41706 -1.54503,-0.41706 -0.42654,0 -0.85309,0.0379 H 164.897 v 10.27492 l 1.11849,1.03318 h -4.33177 l 1.32702,-1.10901 v -9.43131 l -0.67299,-0.009 q -0.97631,0 -1.39337,0.38862 -0.40759,0.37915 -0.48342,1.34598 h -0.24644 q 0.10426,-1.10901 0.56872,-1.54503 0.47393,-0.43602 1.55451,-0.43602 l 0.56872,0.009 h 0.10427 v -0.46446 q -0.48342,-0.0569 -0.91944,-0.0569 -1.22275,0 -1.76304,0.50237 -0.54029,0.49289 -0.59716,1.67773 h -0.11374 q -0.40759,-1.31754 -1.26067,-2.9384 l -0.0569,-0.0948 z m 0.59716,0.59716 q -0.65403,0.83412 -1.37441,2.76778 l -0.0379,0.0948 -0.20854,-0.1801 0.0284,-0.0853 q 0.70142,-1.96209 1.35546,-2.72987 l 0.0474,-0.0569 z m -2.53081,1.47867 q -0.72986,-0.47393 -1.70617,-0.47393 -0.21801,0 -0.45498,0.0284 l 0.0379,9.52611 1.50711,1.782 h -4.84362 l -0.21801,-0.25593 h 4.5403 l -1.27015,-1.45024 v -9.87682 l 0.51186,-0.009 q 0.91943,0 1.29858,0.15166 0.38863,0.14218 0.59716,0.5782 z"
             id="path1253" />
          <path
             d="m 182.0494,156.34986 q -0.49289,0.66351 -0.78673,1.38389 -0.5782,1.42181 -0.76778,1.74409 l -0.0474,0.0569 q -0.0379,-0.10427 -0.0569,-0.16114 -0.26541,-0.85308 -0.43602,-1.18484 -0.17062,-0.33175 -0.51185,-0.63507 -0.86257,-0.76778 -1.9621,-0.76778 -1.01422,0 -1.68721,0.56873 -0.67299,0.55924 -0.67299,1.41232 0,1.59243 2.39812,2.17063 l 1.6019,0.38863 q 3.42181,0.82464 3.42181,3.61138 0,1.55451 -1.17536,2.61613 -1.16588,1.05213 -2.891,1.05213 -1.08058,0 -2.41707,-0.33175 l -1.10901,-0.27488 q -0.67299,-0.16114 -1.10901,-0.16114 -0.5782,0 -1.19432,0.36967 l -0.0758,-0.1327 q 1.17536,-1.77252 1.6493,-3.37442 l 0.17061,0.0474 q 0.19906,1.48816 1.19432,2.31281 0.99527,0.82464 2.60665,0.82464 1.27014,0 2.01896,-0.58768 0.74882,-0.58768 0.74882,-1.58294 0,-1.14693 -1.04266,-1.89574 -0.74882,-0.53081 -3.0711,-0.98579 -1.79148,-0.35071 -2.59717,-1.16588 -0.80569,-0.81517 -0.80569,-2.26541 0,-1.49764 1.0711,-2.42655 1.08057,-0.9384 2.80569,-0.9384 1.10901,0 2.58769,0.39811 0.69195,0.18957 1.0237,0.18957 0.46446,0 1.01423,-0.32227 z m 0.58768,0.39811 -0.0853,0.14218 q -0.38862,0.65403 -0.66351,1.25119 -0.66351,1.39337 -0.74881,1.55451 l -0.0474,0.0663 -0.22749,-0.0948 0.0379,-0.0853 q 0.27488,-0.62559 0.79621,-1.63034 l 0.64455,-1.25119 0.0474,-0.0758 z m -2.76778,1.88626 q -1.04266,-1.10901 -2.23698,-1.10901 -0.72038,0 -1.19432,0.41707 -0.47393,0.41706 -0.47393,1.06161 0,0.70143 0.95735,1.44077 l 0.0758,0.0474 -0.0474,0.0758 q -1.25119,-0.55925 -1.25119,-1.62086 0,-0.73934 0.5308,-1.2038 0.53081,-0.46445 1.38389,-0.46445 0.81517,0 1.42181,0.35071 0.61612,0.34123 0.90048,0.96683 z m 2.1801,3.76305 q 1.28911,0.97631 1.28911,2.673 0,1.81043 -1.40285,3.0711 -1.40285,1.25119 -3.41234,1.25119 -1.0237,0 -1.84835,-0.20853 l -1.51659,-0.36967 q -0.53081,-0.13271 -1.13745,-0.13271 -0.54028,0 -0.99526,0.21801 l -0.11375,-0.27488 q 0.4929,-0.22749 1.00475,-0.22749 0.56872,0 1.29858,0.17062 l 1.45972,0.35071 q 0.87204,0.20853 1.83887,0.20853 1.89574,0 3.22276,-1.20379 1.3365,-1.21328 1.3365,-2.92892 0,-1.45025 -1.0237,-2.5403 z m -6.74884,2.72987 q 0.35071,1.70617 1.87678,2.41707 v 0.0758 q -1.76304,-0.51185 -2.13271,-2.44551 z m -1.18484,-3.0711 0.32228,0.18009 q 0.31279,0.55925 1.82939,0.92892 l 1.52607,0.37914 q 1.55451,0.38863 2.06636,0.67299 0.52133,0.27488 0.73934,0.84361 l -0.0663,0.0379 q -0.42654,-0.49289 -0.92892,-0.72038 -0.49289,-0.22749 -1.90522,-0.55924 -2.0474,-0.47394 -2.74882,-0.81517 -0.70143,-0.35072 -0.83413,-0.94787 z"
             id="path1255" />
        </g>
      </g>
    </g>
  </g>
</svg>
