<?xml version="1.0" encoding="UTF-8" standalone="no"?>
<!-- Created with Inkscape (http://www.inkscape.org/) -->

<svg
   width="39.603741mm"
   height="39.564587mm"
   viewBox="0 0 39.603741 39.564587"
   version="1.1"
   id="svg276"
   inkscape:version="1.2.2 (b0a8486541, 2022-12-01)"
   sodipodi:docname="pgicon.svg"
   xmlns:inkscape="http://www.inkscape.org/namespaces/inkscape"
   xmlns:sodipodi="http://sodipodi.sourceforge.net/DTD/sodipodi-0.dtd"
   xmlns="http://www.w3.org/2000/svg"
   xmlns:svg="http://www.w3.org/2000/svg">
  <sodipodi:namedview
     id="namedview278"
     pagecolor="#ffffff"
     bordercolor="#666666"
     borderopacity="1.0"
     inkscape:showpageshadow="2"
     inkscape:pageopacity="0.0"
     inkscape:pagecheckerboard="0"
     inkscape:deskcolor="#d1d1d1"
     inkscape:document-units="mm"
     showgrid="false"
     inkscape:zoom="0.914906"
     inkscape:cx="128.975"
     inkscape:cy="142.6376"
     inkscape:window-width="1685"
     inkscape:window-height="1251"
     inkscape:window-x="1901"
     inkscape:window-y="256"
     inkscape:window-maximized="0"
     inkscape:current-layer="layer1" />
  <defs
     id="defs273">
    <linearGradient
       id="eye-grad"
       x1="0"
       y1="0"
       x2="0"
       y2="1">
      <stop
         offset="0%"
         stop-color="#ffffff"
         id="stop7" />
      <stop
         offset="100%"
         stop-color="#e8e8e8"
         id="stop9" />
    </linearGradient>
  </defs>
  <g
     inkscape:label="Layer 1"
     inkscape:groupmode="layer"
     id="layer1"
     transform="translate(-63.777902,-110.96749)">
    <g
       id="g994">
      <ellipse
         style="fill:#eee8aa;stroke:#228b22;stroke-width:0.820207;stop-color:#000000"
         id="path552"
         cx="83.579773"
         cy="130.74979"
         rx="19.391768"
         ry="19.37219" />
      <g
         id="g977"
         transform="translate(19.597547,73.010079)">
        <g
           aria-label="PG"
           id="text960"
           style="font-weight:bold;font-size:16.9333px;line-height:125%;font-family:Caslon;-inkscape-font-specification:'Caslon Bold';letter-spacing:0px;word-spacing:0px;stroke-width:0.264583px">
          <path
             d="M 50.140455,59.739555 V 59.24849 l 1.032931,-0.1016 q 0.491066,-0.0508 0.491066,-0.728132 v -9.550381 q 0,-0.660399 -0.592666,-0.728132 l -0.660398,-0.08467 -0.270933,-0.01693 v -0.491066 h 3.217327 l 1.862663,-0.01693 2.015063,-0.06773 h 0.677332 q 1.253064,0 2.015062,0.135466 0.761999,0.118533 1.422398,0.406399 0.965198,0.4064 1.523997,0.914399 0.965198,0.897465 0.965198,2.048929 0,1.303864 -1.100665,2.099729 -0.660399,0.474133 -1.79493,0.761999 -1.134531,0.270932 -2.709328,0.270932 h -1.371597 q -0.304799,0 -0.355599,0.03387 -0.06773,0.0508 -0.06773,0.304799 v 3.979326 q 0,0.338666 0.1524,0.541866 0.169333,0.186266 0.507999,0.186266 l 1.015998,0.1016 v 0.491065 z m 6.603987,-6.265321 0.253999,-0.01693 q 0.982132,0 1.608664,-0.728132 0.643465,-0.745065 0.643465,-1.896529 0,-0.3048 -0.0508,-0.643466 -0.152399,-0.914398 -0.778931,-1.523997 -0.609599,-0.626532 -1.439331,-0.626532 h -0.220133 q -0.321733,0 -0.321733,0.355599 v 4.758258 q 0,0.220133 0.0508,0.270932 0.0508,0.0508 0.254,0.0508 z"
             id="path979" />
          <path
             d="m 77.436941,47.429046 h 0.338666 v 4.690524 h -0.406399 q -0.745065,-1.151464 -1.777996,-2.048929 -0.829732,-0.745065 -1.625597,-1.185331 -1.151465,-0.643465 -2.04893,-0.643465 -2.048929,0 -2.624661,3.149593 l -0.1524,1.219198 q 0,1.862663 0.186267,3.081861 0.186266,1.219197 0.694265,2.133595 0.406399,0.728132 0.948265,1.100665 0.541865,0.372533 1.100664,0.372533 0.694265,0 1.168398,-0.558799 0.237066,-0.287866 0.321733,-0.541866 0.101599,-0.253999 0.101599,-0.812798 l 0.01693,-0.186267 v -1.151464 l -0.01693,-0.2032 q 0,-0.626532 -0.135466,-0.829731 -0.135466,-0.220133 -0.575732,-0.254 L 72.001352,54.642632 V 54.1685 h 7.467585 v 0.491065 l -0.694265,0.118533 q -0.338666,0.0508 -0.338666,0.728132 v 0.558799 3.674526 H 78.063473 Q 77.707874,59.214623 77.081342,58.99449 l -0.863598,0.287866 q -1.015998,0.338666 -1.811863,0.507999 -0.795866,0.169333 -1.523997,0.169333 -4.131726,0 -6.519321,-1.64253 -2.387595,-1.659463 -2.387595,-4.419591 0,-2.777061 2.015062,-4.605858 2.09973,-1.896529 5.503323,-1.896529 0.948265,0 1.947329,0.152399 0.999065,0.1524 2.116663,0.491066 l 0.609599,0.186266 q 0.03387,0.01693 0.186266,0.0508 0.169333,0.01693 0.254,0.01693 0.609598,0 0.795865,-0.660399 z"
             id="path981" />
        </g>
        <g
           aria-label="W"
           id="text964"
           style="font-weight:bold;font-size:16.9333px;line-height:125%;font-family:Caslon;-inkscape-font-specification:'Caslon Bold';letter-spacing:0px;word-spacing:0px;stroke-width:0.264583px"
           inkscape:transform-center-x="2.4673089"
           inkscape:transform-center-y="-20.874252">
          <path
             d="m 54.695517,61.788737 v -0.491066 h 6.603987 v 0.491066 h -0.06773 q -0.270933,0 -0.474133,0.237066 -0.186266,0.220133 -0.186266,0.558799 0,0.203199 0.06773,0.355599 l 2.302929,5.994388 0.06773,0.1016 q 0.06773,0.1016 0.135467,0 l 0.101599,-0.135466 1.049865,-2.523062 -1.523997,-3.877726 q -0.08467,-0.220133 -0.118533,-0.270933 -0.0508,-0.06773 -0.220133,-0.220133 -0.287866,-0.220132 -0.457199,-0.220132 h -0.06773 v -0.491066 h 6.976519 v 0.491066 l -0.101599,0.01693 -0.287867,0.03387 q -0.524932,0.0508 -0.524932,0.880532 l 0.03387,0.237066 1.981196,5.638789 0.118533,0.186267 0.169333,-0.169333 1.202264,-3.149594 0.118533,-0.3556 q 0.270933,-0.829731 0.270933,-1.523997 0,-1.557863 -1.54093,-1.777996 l -0.287866,-0.01693 v -0.491066 h 4.87679 v 0.491066 q -0.643465,0 -1.219197,0.812798 -0.118534,0.1524 -0.237067,0.389466 -0.186266,0.355599 -0.338666,0.711199 l -4.030125,9.90598 h -2.285996 l -2.065862,-6.079055 -2.777061,6.079055 H 59.67391 l -4.114792,-10.921979 -0.1016,-0.237066 q -0.270932,-0.660398 -0.677332,-0.660398 z"
             id="path984" />
        </g>
      </g>
    </g>
  </g>
</svg>
